<svg width="40" height="40" viewBox="0 0 40 40" fill="none" xmlns="http://www.w3.org/2000/svg">
<path d="M33.8617 6.92599C31.3122 5.75619 28.5783 4.89433 25.7198 4.40071C25.6678 4.39118 25.6158 4.41499 25.589 4.4626C25.2374 5.08796 24.8479 5.90379 24.5752 6.54503C21.5007 6.08475 18.442 6.08475 15.4305 6.54503C15.1577 5.88954 14.7541 5.08796 14.401 4.4626C14.3741 4.41658 14.3221 4.39277 14.2701 4.40071C11.4132 4.89275 8.67927 5.75461 6.12823 6.92599C6.10614 6.93551 6.08721 6.9514 6.07465 6.97202C0.888986 14.7193 -0.531584 22.2761 0.1653 29.7393C0.168453 29.7758 0.18895 29.8107 0.21733 29.8329C3.63868 32.3455 6.95285 33.8708 10.2055 34.8819C10.2575 34.8978 10.3127 34.8787 10.3458 34.8358C11.1152 33.7851 11.8011 32.6773 12.3891 31.5122C12.4238 31.444 12.3907 31.363 12.3198 31.336C11.2319 30.9233 10.196 30.4202 9.19955 29.8488C9.12073 29.8028 9.11442 29.69 9.18693 29.6361C9.39662 29.4789 9.60637 29.3155 9.80659 29.1504C9.84282 29.1202 9.8933 29.1139 9.93589 29.1329C16.4821 32.1217 23.5692 32.1217 30.0383 29.1329C30.0808 29.1123 30.1313 29.1187 30.1691 29.1488C30.3694 29.3139 30.5791 29.4789 30.7904 29.6361C30.8629 29.69 30.8581 29.8028 30.7793 29.8488C29.7829 30.4313 28.747 30.9233 27.6575 31.3344C27.5866 31.3614 27.555 31.444 27.5897 31.5122C28.1904 32.6756 28.8763 33.7835 29.6315 34.8343C29.663 34.8787 29.7198 34.8978 29.7718 34.8819C33.0402 33.8708 36.3544 32.3455 39.7757 29.8329C39.8057 29.8107 39.8246 29.7774 39.8278 29.7409C40.6618 21.1126 38.4308 13.6178 33.9137 6.9736C33.9026 6.9514 33.8838 6.93551 33.8617 6.92599ZM13.3667 25.195C11.3958 25.195 9.77189 23.3856 9.77189 21.1635C9.77189 18.9413 11.3643 17.1319 13.3667 17.1319C15.3848 17.1319 16.993 18.9572 16.9615 21.1635C16.9615 23.3856 15.369 25.195 13.3667 25.195ZM26.6579 25.195C24.6871 25.195 23.0632 23.3856 23.0632 21.1635C23.0632 18.9413 24.6555 17.1319 26.6579 17.1319C28.6761 17.1319 30.2842 18.9572 30.2527 21.1635C30.2527 23.3856 28.6761 25.195 26.6579 25.195Z" fill="#F5DF4D"/>
</svg>
