<svg width="436" height="436" viewBox="0 0 436 436" fill="none" xmlns="http://www.w3.org/2000/svg">
<g clip-path="url(#clip0_2802_80)">
<mask id="mask0_2802_80" style="mask-type:alpha" maskUnits="userSpaceOnUse" x="0" y="1" width="436" height="434">
<path fill-rule="evenodd" clip-rule="evenodd" d="M309.176 433.022C316.043 435.698 323.873 435.526 330.804 432.191L420.569 388.998C430.002 384.459 436 374.913 436 364.44V71.5617C436 61.089 430.002 51.5427 420.57 47.004L330.804 3.80927C321.708 -0.56767 311.062 0.504406 303.079 6.30839C301.939 7.13749 300.852 8.06321 299.833 9.08336L127.988 165.861L53.1362 109.042C46.168 103.752 36.4218 104.186 29.9503 110.073L5.94281 131.911C-1.97313 139.112 -1.9822 151.565 5.92319 158.778L70.8374 218L5.92319 277.222C-1.9822 284.435 -1.97313 296.889 5.94281 304.089L29.9503 325.928C36.4218 331.814 46.168 332.248 53.1362 326.958L127.988 270.14L299.833 426.916C302.551 429.637 305.743 431.685 309.176 433.022ZM327.066 119.023L196.676 218L327.066 316.977V119.023Z" fill="white"/>
</mask>
<g mask="url(#mask0_2802_80)">
<path d="M420.573 47.0705L330.737 3.8164C320.338 -1.19026 307.911 0.921657 299.751 9.08235L5.66265 277.222C-2.24758 284.434 -2.23848 296.888 5.68227 304.088L29.7043 325.926C36.1798 331.813 45.9321 332.247 52.9042 326.958L407.054 58.2918C418.936 49.2784 436.001 57.7525 436.001 72.6658V71.6229C436.001 61.1546 430.004 51.6118 420.573 47.0705Z" fill="#0065A9"/>
<g filter="url(#filter0_d_2802_80)">
<path d="M420.573 388.929L330.737 432.183C320.338 437.191 307.911 435.078 299.751 426.917L5.66265 158.778C-2.24758 151.566 -2.23848 139.112 5.68227 131.912L29.7043 110.073C36.1798 104.186 45.9321 103.753 52.9042 109.042L407.054 377.708C418.936 386.721 436.001 378.247 436.001 363.334V364.377C436.001 374.845 430.004 384.388 420.573 388.929Z" fill="#007ACC"/>
</g>
<g filter="url(#filter1_d_2802_80)">
<path d="M330.74 432.191C320.338 437.195 307.911 435.078 299.75 426.917C309.806 436.973 327 429.85 327 415.629V20.3707C327 6.14953 309.806 -0.972513 299.75 9.08337C307.911 0.921942 320.338 -1.19296 330.74 3.80927L420.56 47.0041C429.998 51.5428 436 61.0891 436 71.5618V364.44C436 374.913 429.998 384.459 420.56 388.998L330.74 432.191Z" fill="#1F9CF0"/>
</g>
<g style="mix-blend-mode:overlay" opacity="0.25">
<path style="mix-blend-mode:overlay" opacity="0.25" fill-rule="evenodd" clip-rule="evenodd" d="M308.912 433.023C315.779 435.697 323.609 435.526 330.54 432.191L420.305 388.998C429.737 384.459 435.736 374.913 435.736 364.44V71.562C435.736 61.0888 429.738 51.5426 420.305 47.0038L330.54 3.80927C321.444 -0.567668 310.798 0.504408 302.815 6.30836C301.674 7.1375 300.588 8.06321 299.569 9.08337L127.724 165.86L52.872 109.042C45.9042 103.752 36.1577 104.186 29.6861 110.073L5.67866 131.911C-2.23729 139.112 -2.24636 151.565 5.65904 158.778L70.5731 218L5.65904 277.223C-2.24636 284.435 -2.23729 296.889 5.67866 304.089L29.6861 325.927C36.1577 331.814 45.9042 332.248 52.872 326.959L127.724 270.139L299.569 426.917C302.287 429.637 305.479 431.685 308.912 433.023ZM326.802 119.023L196.411 218L326.802 316.977V119.023Z" fill="url(#paint0_linear_2802_80)"/>
</g>
</g>
</g>
<defs>
<filter id="filter0_d_2802_80" x="-8.5975" y="97.0153" width="452.932" height="346.191" filterUnits="userSpaceOnUse" color-interpolation-filters="sRGB">
<feFlood flood-opacity="0" result="BackgroundImageFix"/>
<feColorMatrix in="SourceAlpha" type="matrix" values="0 0 0 0 0 0 0 0 0 0 0 0 0 0 0 0 0 0 127 0" result="hardAlpha"/>
<feOffset/>
<feGaussianBlur stdDeviation="4.16667"/>
<feColorMatrix type="matrix" values="0 0 0 0 0 0 0 0 0 0 0 0 0 0 0 0 0 0 0.25 0"/>
<feBlend mode="overlay" in2="BackgroundImageFix" result="effect1_dropShadow_2802_80"/>
<feBlend mode="normal" in="SourceGraphic" in2="effect1_dropShadow_2802_80" result="shape"/>
</filter>
<filter id="filter1_d_2802_80" x="291.417" y="-7.20932" width="152.917" height="450.42" filterUnits="userSpaceOnUse" color-interpolation-filters="sRGB">
<feFlood flood-opacity="0" result="BackgroundImageFix"/>
<feColorMatrix in="SourceAlpha" type="matrix" values="0 0 0 0 0 0 0 0 0 0 0 0 0 0 0 0 0 0 127 0" result="hardAlpha"/>
<feOffset/>
<feGaussianBlur stdDeviation="4.16667"/>
<feColorMatrix type="matrix" values="0 0 0 0 0 0 0 0 0 0 0 0 0 0 0 0 0 0 0.25 0"/>
<feBlend mode="overlay" in2="BackgroundImageFix" result="effect1_dropShadow_2802_80"/>
<feBlend mode="normal" in="SourceGraphic" in2="effect1_dropShadow_2802_80" result="shape"/>
</filter>
<linearGradient id="paint0_linear_2802_80" x1="217.736" y1="1.12402" x2="217.736" y2="434.876" gradientUnits="userSpaceOnUse">
<stop stop-color="white"/>
<stop offset="1" stop-color="white" stop-opacity="0"/>
</linearGradient>
<clipPath id="clip0_2802_80">
<rect width="436" height="436" fill="white"/>
</clipPath>
</defs>
</svg>
